<svg width="20" height="20" viewBox="0 0 20 20" fill="none" xmlns="http://www.w3.org/2000/svg">
<path d="M12.5431 16.286L12.5431 16.2858L12.53 16.2848C12.1293 16.254 11.6651 16.176 11.1777 16.0561L11.1741 16.0553L9.77414 15.7219L9.77338 15.7218C7.90869 15.2809 6.78645 14.5923 6.20522 13.6543C5.62412 12.7166 5.50836 11.4078 5.9451 9.54762L5.94519 9.54721L6.76186 6.05555L6.76211 6.05448C6.93967 5.28771 7.14509 4.68618 7.38888 4.19861L7.38891 4.19863L7.39163 4.19302C8.04054 2.8537 8.95701 2.27853 9.91869 2.06523C10.9133 1.84461 11.9953 2.00349 12.9523 2.22841L12.953 2.22857L14.3439 2.55341C14.3441 2.55344 14.3442 2.55347 14.3443 2.5535C16.2335 2.9976 17.3167 3.6745 17.9085 4.62196C18.4926 5.57024 18.6235 6.84005 18.1799 8.72727L18.1799 8.72754L17.3633 12.2106C17.0168 13.6851 16.4973 14.7046 15.8221 15.3543C15.1599 15.9914 14.3023 16.3167 13.175 16.3167C12.9715 16.3167 12.7641 16.3089 12.5431 16.286ZM7.00526 6.1092L7.00526 6.1092L7.0048 6.11114L6.18831 9.60208C6.18828 9.60222 6.18824 9.60235 6.18821 9.60248C5.80939 11.2116 5.79994 12.5116 6.42406 13.5177C7.04779 14.5233 8.21751 15.0951 9.82586 15.4781L11.2246 15.8111C11.2248 15.8112 11.225 15.8112 11.2251 15.8112C11.6977 15.925 12.1461 15.9956 12.5536 16.0312C13.7649 16.1509 14.7694 15.9533 15.5533 15.2709C16.3167 14.6063 16.7874 13.5514 17.1119 12.1553C17.1119 12.1552 17.112 12.155 17.112 12.1549L17.9285 8.67247L17.9286 8.67188C18.3124 7.02598 18.2987 5.73465 17.6919 4.75365C17.085 3.77245 15.9365 3.18064 14.2799 2.79634C14.2798 2.79632 14.2797 2.79629 14.2796 2.79627L12.8921 2.47225C12.8916 2.47212 12.891 2.47198 12.8904 2.47184C12.1726 2.29898 11.516 2.20834 10.9333 2.20834C10.1675 2.20834 9.49951 2.36721 8.9318 2.72802C8.36477 3.0884 7.94104 3.62277 7.61616 4.29977C7.37986 4.79055 7.17773 5.38483 7.00526 6.1092Z" fill="#96C0FF" stroke="#96C0FF"/>
<path d="M3.03399 14.3959L3.03412 14.3963C3.45764 15.7072 3.98258 16.6147 4.61301 17.193C5.2296 17.7587 5.98184 18.0417 6.94167 18.0417C7.62509 18.0417 8.40517 17.905 9.33047 17.6156L10.6437 17.1834L10.646 17.1826C11.4917 16.9088 12.1352 16.6106 12.633 16.2715C12.6747 16.2422 12.6951 16.1931 12.6841 16.1402C12.6635 16.0787 12.6168 16.045 12.5627 16.0396C12.5624 16.0395 12.562 16.0395 12.5617 16.0395L12.6083 15.5417C12.225 15.5083 11.8 15.4417 11.35 15.3333L3.03399 14.3959ZM3.03399 14.3959L1.9675 11.1048C1.96748 11.1047 1.96746 11.1046 1.96743 11.1045C1.39339 9.32572 1.40151 8.04763 1.88705 7.09598C2.37246 6.14459 3.40043 5.39132 5.17057 4.81739C5.17067 4.81736 5.17077 4.81732 5.17087 4.81729L6.48365 4.39355C6.91506 4.26085 7.21179 4.17836 7.46782 4.13447L7.47625 4.13303L7.48464 4.13129C7.51349 4.12532 7.53504 4.12878 7.5506 4.13473C7.5664 4.14077 7.58304 4.15207 7.59791 4.17219C7.62969 4.21518 7.63639 4.26933 7.61425 4.32031C7.37791 4.80389 7.17637 5.39826 7.01273 6.12122L6.19664 9.6104C6.19659 9.61062 6.19654 9.61083 6.19649 9.61104C6.19649 9.61107 6.19648 9.6111 6.19648 9.61112C5.81773 11.2201 5.80832 12.52 6.4324 13.5261C7.05612 14.5316 8.22584 15.1035 9.83419 15.4864L11.233 15.8194C11.2332 15.8195 11.2335 15.8196 11.2338 15.8196L3.03399 14.3959ZM6.95935 5.33633L7.25869 4.40506L6.32854 4.70789L5.25503 5.05741C5.25478 5.05749 5.25453 5.05757 5.25428 5.05765C3.73336 5.54768 2.64798 6.19153 2.12529 7.21788C1.60304 8.24336 1.71765 9.50365 2.20729 11.0279L2.20769 11.0291L3.27435 14.3208L3.27448 14.3212C3.76869 15.8422 4.41464 16.9287 5.43993 17.4534C6.4654 17.9782 7.72378 17.8659 9.24498 17.3759L9.24498 17.3759L9.24798 17.3749L10.5646 16.9416L10.5664 16.941C10.5979 16.9305 10.6262 16.9202 10.6482 16.9122L10.65 16.9116C10.6736 16.903 10.6905 16.8969 10.7081 16.891L12.3785 16.3342L10.6648 15.93L9.78172 15.7217C9.78163 15.7217 9.78154 15.7217 9.78144 15.7217C7.91692 15.2808 6.79476 14.5922 6.21356 13.6543C5.63246 12.7166 5.51669 11.4078 5.95343 9.54761L5.95353 9.5472L6.7702 6.05553L6.77025 6.05555L6.77179 6.04851C6.82773 5.79277 6.89049 5.55055 6.95935 5.33633Z" fill="#96C0FF" stroke="#96C0FF"/>
<path d="M14.575 8.75833C14.525 8.75833 14.475 8.75 14.4167 8.74166L10.375 7.71666C10.0417 7.63333 9.84168 7.29166 9.92502 6.95833C10.0084 6.625 10.35 6.425 10.6834 6.50833L14.725 7.53333C15.0584 7.61666 15.2584 7.95833 15.175 8.29166C15.1084 8.56666 14.85 8.75833 14.575 8.75833Z" fill="#96C0FF"/>
<path d="M12.1333 11.575C12.0833 11.575 12.0333 11.5667 11.975 11.5583L9.55001 10.9417C9.21667 10.8583 9.01667 10.5167 9.10001 10.1833C9.18334 9.85 9.52501 9.65 9.85834 9.73334L12.2833 10.35C12.6167 10.4333 12.8167 10.775 12.7333 11.1083C12.6667 11.3917 12.4167 11.575 12.1333 11.575Z" fill="#96C0FF"/>
</svg>
