<svg width="18" height="16" viewBox="0 0 18 16" fill="none" xmlns="http://www.w3.org/2000/svg">
<path d="M7.77161 1.07167L8.58498 0.258301C8.92939 -0.0861003 9.48629 -0.0861003 9.82703 0.258301L16.9495 7.37715C17.2939 7.72155 17.2939 8.27845 16.9495 8.61919L9.82703 15.7417C9.48263 16.0861 8.92572 16.0861 8.58498 15.7417L7.77161 14.9283C7.42355 14.5803 7.43087 14.0124 7.78627 13.6716L12.2012 9.46554H1.67131C1.18402 9.46554 0.791992 9.07351 0.791992 8.58622V7.41379C0.791992 6.9265 1.18402 6.53446 1.67131 6.53446H12.2012L7.78627 2.32837C7.42721 1.98763 7.41988 1.41974 7.77161 1.07167Z" fill="white"/>
</svg>
