<svg width="20" height="20" viewBox="0 0 20 20" fill="none" xmlns="http://www.w3.org/2000/svg">
<path d="M3.28165 9.93132L3.28135 9.93112C2.48903 9.4147 2.01666 8.54696 2.01666 7.6C2.01666 6.65311 2.48895 5.78545 3.28114 5.26901C3.28121 5.26897 3.28128 5.26892 3.28135 5.26888L8.3056 2.0027C8.76853 1.70214 9.38405 1.5397 10.0191 1.54062C10.6542 1.54155 11.2664 1.7058 11.7241 2.00866L11.7257 2.00972L16.7169 5.28442C16.717 5.28445 16.717 5.28448 16.7171 5.28451C17.5028 5.80129 17.975 6.66999 17.975 7.60833C17.975 8.54655 17.5029 9.41513 16.7174 9.93194C16.7174 9.93195 16.7174 9.93196 16.7173 9.93197C16.7172 9.93206 16.7171 9.93215 16.7169 9.93224L11.7257 13.2069L11.7255 13.2071C11.2663 13.5087 10.6508 13.6667 10.0083 13.6667C9.37987 13.6667 8.7613 13.5029 8.29662 13.2052L3.28165 9.93132ZM3.42716 5.481L3.42716 5.481L3.42541 5.48215C2.70498 5.95557 2.275 6.72739 2.275 7.6C2.275 8.46895 2.69371 9.24349 3.42744 9.71918C3.42767 9.71933 3.4279 9.71948 3.42813 9.71962L8.44334 12.9937L8.44399 12.9941C8.8929 13.2862 9.47276 13.4125 10.0167 13.4125C10.5606 13.4125 11.1404 13.2862 11.5893 12.9941L11.5909 12.9931L16.5826 9.71805L16.5829 9.71785C17.3069 9.2421 17.725 8.46842 17.725 7.6C17.725 6.73158 17.3069 5.9579 16.5829 5.48215L16.5826 5.48194L11.5909 2.20694L11.591 2.2068L11.5798 2.19987C11.134 1.9239 10.5628 1.79167 10.0083 1.79167C9.47249 1.79167 8.89019 1.91136 8.43956 2.21711L3.42716 5.481Z" fill="#96C0FF" stroke="#96C0FF"/>
<path d="M9.11646 18.334L9.11601 18.3338L6.45767 17.4505L6.45718 17.4503C5.40338 17.1014 4.55137 15.9185 4.55834 14.8115L4.55834 14.8094L4.56667 10.9011H4.56667V10.9C4.56667 10.8698 4.57896 10.8386 4.6046 10.8129C4.63025 10.7873 4.66153 10.775 4.69167 10.775C4.72182 10.775 4.7531 10.7873 4.77875 10.8129C4.8043 10.8385 4.81659 10.8696 4.81667 10.8997C4.81667 10.8998 4.81667 10.8999 4.81667 10.9L4.80834 14.8073V14.8083C4.80834 15.3301 5.02041 15.851 5.3204 16.2673C5.62041 16.6837 6.04715 17.0492 6.5403 17.2155L6.54234 17.2162L9.20067 18.0995L9.20067 18.0995L9.2038 18.1005C9.44011 18.1773 9.73585 18.2062 10 18.2062C10.2642 18.2062 10.5599 18.1773 10.7962 18.1005L10.7962 18.1005L10.7993 18.0995L13.4577 17.2162L13.4597 17.2155C13.9528 17.0493 14.3793 16.6838 14.6792 16.2689C14.9789 15.8543 15.1917 15.3352 15.1917 14.8167V10.95C15.1917 10.9198 15.204 10.8886 15.2296 10.8629C15.2552 10.8373 15.2865 10.825 15.3167 10.825C15.3468 10.825 15.3781 10.8373 15.4037 10.8629C15.4294 10.8886 15.4417 10.9198 15.4417 10.95V14.8167C15.4417 15.926 14.5965 17.1022 13.5411 17.4593C13.5407 17.4594 13.5404 17.4595 13.54 17.4596L10.8901 18.3401C10.6466 18.4138 10.3245 18.4583 10 18.4583C9.67227 18.4583 9.3531 18.4129 9.11646 18.334Z" fill="#96C0FF" stroke="#96C0FF"/>
<path d="M17.8333 13.125C17.4916 13.125 17.2083 12.8417 17.2083 12.5V7.5C17.2083 7.15833 17.4916 6.875 17.8333 6.875C18.175 6.875 18.4583 7.15833 18.4583 7.5V12.5C18.4583 12.8417 18.175 13.125 17.8333 13.125Z" fill="#96C0FF"/>
</svg>
