<svg width="20" height="20" viewBox="0 0 20 20" fill="none" xmlns="http://www.w3.org/2000/svg">
<path d="M14.6166 6.92501C15.7488 6.92501 16.6666 6.0072 16.6666 4.87501C16.6666 3.74283 15.7488 2.82501 14.6166 2.82501C13.4845 2.82501 12.5667 3.74283 12.5667 4.87501C12.5667 6.0072 13.4845 6.92501 14.6166 6.92501Z" stroke="#96C0FF" stroke-width="1.5" stroke-miterlimit="10" stroke-linecap="round" stroke-linejoin="round"/>
<path d="M5.38332 6.92501C6.5155 6.92501 7.43331 6.0072 7.43331 4.87501C7.43331 3.74283 6.5155 2.82501 5.38332 2.82501C4.25113 2.82501 3.33331 3.74283 3.33331 4.87501C3.33331 6.0072 4.25113 6.92501 5.38332 6.92501Z" stroke="#96C0FF" stroke-width="1.5" stroke-miterlimit="10" stroke-linecap="round" stroke-linejoin="round"/>
<path d="M14.6166 17.175C15.7488 17.175 16.6666 16.2572 16.6666 15.125C16.6666 13.9928 15.7488 13.075 14.6166 13.075C13.4845 13.075 12.5667 13.9928 12.5667 15.125C12.5667 16.2572 13.4845 17.175 14.6166 17.175Z" stroke="#96C0FF" stroke-width="1.5" stroke-miterlimit="10" stroke-linecap="round" stroke-linejoin="round"/>
<path d="M5.38332 17.175C6.5155 17.175 7.43331 16.2572 7.43331 15.125C7.43331 13.9928 6.5155 13.075 5.38332 13.075C4.25113 13.075 3.33331 13.9928 3.33331 15.125C3.33331 16.2572 4.25113 17.175 5.38332 17.175Z" stroke="#96C0FF" stroke-width="1.5" stroke-miterlimit="10" stroke-linecap="round" stroke-linejoin="round"/>
</svg>
